<mxfile host="Electron" modified="2024-03-13T13:36:40.308Z" agent="Mozilla/5.0 (Windows NT 10.0; Win64; x64) AppleWebKit/537.36 (KHTML, like Gecko) draw.io/24.0.4 Chrome/120.0.6099.109 Electron/28.1.0 Safari/537.36" etag="zEcxtLisUpXvF1MnUNMF" version="24.0.4" type="device">
  <diagram name="第 1 页" id="rWjA7MisV1gUNsPY2eRc">
    <mxGraphModel dx="2074" dy="1214" grid="0" gridSize="10" guides="1" tooltips="1" connect="1" arrows="1" fold="1" page="0" pageScale="1" pageWidth="827" pageHeight="1169" math="0" shadow="0">
      <root>
        <mxCell id="0" />
        <mxCell id="1" parent="0" />
        <mxCell id="OyZmsM7QjPxszk3Gy9xb-33" value="&lt;font style=&quot;font-size: 15px;&quot;&gt;&lt;b&gt;PC&lt;/b&gt;&lt;/font&gt;" style="rounded=0;whiteSpace=wrap;html=1;strokeWidth=3;dashed=1;verticalAlign=top;" parent="1" vertex="1">
          <mxGeometry x="8" y="214" width="458" height="504" as="geometry" />
        </mxCell>
        <mxCell id="OyZmsM7QjPxszk3Gy9xb-32" value="&lt;font style=&quot;font-size: 15px;&quot;&gt;&lt;b&gt;IDE工具&lt;/b&gt;&lt;/font&gt;" style="rounded=0;whiteSpace=wrap;html=1;verticalAlign=top;fillColor=#d5e8d4;strokeColor=#82b366;" parent="1" vertex="1">
          <mxGeometry x="37" y="240" width="400" height="375" as="geometry" />
        </mxCell>
        <mxCell id="OyZmsM7QjPxszk3Gy9xb-39" style="edgeStyle=orthogonalEdgeStyle;rounded=0;orthogonalLoop=1;jettySize=auto;html=1;exitX=0.25;exitY=1;exitDx=0;exitDy=0;entryX=0.5;entryY=0;entryDx=0;entryDy=0;shape=flexArrow;startArrow=block;fillColor=#e1d5e7;strokeColor=#9673a6;" parent="1" source="OyZmsM7QjPxszk3Gy9xb-17" target="OyZmsM7QjPxszk3Gy9xb-37" edge="1">
          <mxGeometry relative="1" as="geometry" />
        </mxCell>
        <mxCell id="OyZmsM7QjPxszk3Gy9xb-40" style="edgeStyle=orthogonalEdgeStyle;rounded=0;orthogonalLoop=1;jettySize=auto;html=1;exitX=0.75;exitY=1;exitDx=0;exitDy=0;shape=flexArrow;startArrow=block;fillColor=#e1d5e7;strokeColor=#9673a6;" parent="1" source="OyZmsM7QjPxszk3Gy9xb-17" target="OyZmsM7QjPxszk3Gy9xb-36" edge="1">
          <mxGeometry relative="1" as="geometry">
            <Array as="points">
              <mxPoint x="668" y="608" />
              <mxPoint x="716" y="608" />
            </Array>
          </mxGeometry>
        </mxCell>
        <mxCell id="OyZmsM7QjPxszk3Gy9xb-17" value="&lt;b style=&quot;font-size: 15px;&quot;&gt;&lt;font style=&quot;font-size: 15px;&quot;&gt;瑞萨 RA系列MCU&lt;/font&gt;&lt;/b&gt;" style="rounded=0;whiteSpace=wrap;html=1;fillColor=#d5e8d4;strokeColor=#82b366;fontSize=15;" parent="1" vertex="1">
          <mxGeometry x="578" y="513.5" width="120" height="60" as="geometry" />
        </mxCell>
        <mxCell id="OyZmsM7QjPxszk3Gy9xb-14" style="edgeStyle=orthogonalEdgeStyle;rounded=0;orthogonalLoop=1;jettySize=auto;html=1;exitX=1;exitY=0.5;exitDx=0;exitDy=0;entryX=0;entryY=0.5;entryDx=0;entryDy=0;fontSize=15;" parent="1" source="OyZmsM7QjPxszk3Gy9xb-3" target="OyZmsM7QjPxszk3Gy9xb-12" edge="1">
          <mxGeometry relative="1" as="geometry" />
        </mxCell>
        <mxCell id="OyZmsM7QjPxszk3Gy9xb-3" value="&lt;font style=&quot;font-size: 15px;&quot;&gt;测试工程 .c/.h&lt;/font&gt;" style="rounded=0;whiteSpace=wrap;html=1;verticalAlign=top;fontStyle=1;fillColor=#fff2cc;strokeColor=#d6b656;fontSize=15;" parent="1" vertex="1">
          <mxGeometry x="54.5" y="326.5" width="194" height="213" as="geometry" />
        </mxCell>
        <mxCell id="OyZmsM7QjPxszk3Gy9xb-1" value="驱动&lt;div style=&quot;font-size: 15px;&quot;&gt;（driver）&lt;/div&gt;" style="rounded=0;whiteSpace=wrap;html=1;fontSize=15;fontStyle=1;fillColor=#f5f5f5;strokeColor=#666666;fontColor=#333333;" parent="1" vertex="1">
          <mxGeometry x="91.5" y="442.5" width="120" height="60" as="geometry" />
        </mxCell>
        <mxCell id="OyZmsM7QjPxszk3Gy9xb-2" value="&lt;font style=&quot;font-size: 15px;&quot;&gt;测试样例&lt;/font&gt;&lt;div style=&quot;font-size: 15px;&quot;&gt;&lt;font style=&quot;font-size: 15px;&quot;&gt;(test case)&lt;/font&gt;&lt;/div&gt;" style="rounded=0;whiteSpace=wrap;html=1;fontStyle=1;fillColor=#f5f5f5;strokeColor=#666666;fontColor=#333333;fontSize=15;" parent="1" vertex="1">
          <mxGeometry x="91.5" y="363.5" width="120" height="60" as="geometry" />
        </mxCell>
        <mxCell id="OyZmsM7QjPxszk3Gy9xb-38" style="edgeStyle=orthogonalEdgeStyle;rounded=0;orthogonalLoop=1;jettySize=auto;html=1;exitX=1;exitY=0.5;exitDx=0;exitDy=0;entryX=0;entryY=0.5;entryDx=0;entryDy=0;shape=flexArrow;startArrow=block;fillColor=#e1d5e7;strokeColor=#9673a6;" parent="1" source="OyZmsM7QjPxszk3Gy9xb-5" target="OyZmsM7QjPxszk3Gy9xb-24" edge="1">
          <mxGeometry relative="1" as="geometry" />
        </mxCell>
        <mxCell id="OyZmsM7QjPxszk3Gy9xb-5" value="可执行文件 .hex/.elf/.bin&lt;div style=&quot;font-size: 15px;&quot;&gt;(&lt;span style=&quot;color: rgb(13, 13, 13); font-family: Söhne, ui-sans-serif, system-ui, -apple-system, &amp;quot;Segoe UI&amp;quot;, Roboto, Ubuntu, Cantarell, &amp;quot;Noto Sans&amp;quot;, sans-serif, &amp;quot;Helvetica Neue&amp;quot;, Arial, &amp;quot;Apple Color Emoji&amp;quot;, &amp;quot;Segoe UI Emoji&amp;quot;, &amp;quot;Segoe UI Symbol&amp;quot;, &amp;quot;Noto Color Emoji&amp;quot;; text-align: start; white-space-collapse: preserve; font-size: 15px;&quot;&gt;&lt;font style=&quot;font-size: 15px;&quot;&gt;firmware&lt;/font&gt;&lt;/span&gt;)&lt;/div&gt;" style="rounded=0;whiteSpace=wrap;html=1;fontSize=15;fontStyle=1;fillColor=#fff2cc;strokeColor=#d6b656;" parent="1" vertex="1">
          <mxGeometry x="304.5" y="542" width="120" height="60" as="geometry" />
        </mxCell>
        <mxCell id="OyZmsM7QjPxszk3Gy9xb-15" style="edgeStyle=orthogonalEdgeStyle;rounded=0;orthogonalLoop=1;jettySize=auto;html=1;exitX=0.5;exitY=1;exitDx=0;exitDy=0;entryX=0.5;entryY=0;entryDx=0;entryDy=0;fontSize=15;" parent="1" source="OyZmsM7QjPxszk3Gy9xb-12" target="OyZmsM7QjPxszk3Gy9xb-5" edge="1">
          <mxGeometry relative="1" as="geometry" />
        </mxCell>
        <mxCell id="OyZmsM7QjPxszk3Gy9xb-12" value="" style="shape=orEllipse;perimeter=ellipsePerimeter;whiteSpace=wrap;html=1;backgroundOutline=1;fillColor=#f8cecc;strokeColor=#b85450;fontSize=15;" parent="1" vertex="1">
          <mxGeometry x="339.5" y="408" width="50" height="50" as="geometry" />
        </mxCell>
        <mxCell id="OyZmsM7QjPxszk3Gy9xb-16" style="edgeStyle=orthogonalEdgeStyle;rounded=0;orthogonalLoop=1;jettySize=auto;html=1;exitX=0.5;exitY=1;exitDx=0;exitDy=0;entryX=0.5;entryY=0;entryDx=0;entryDy=0;fontSize=15;" parent="1" source="OyZmsM7QjPxszk3Gy9xb-13" target="OyZmsM7QjPxszk3Gy9xb-12" edge="1">
          <mxGeometry relative="1" as="geometry" />
        </mxCell>
        <mxCell id="OyZmsM7QjPxszk3Gy9xb-13" value="编译器，链接器" style="rounded=0;whiteSpace=wrap;html=1;fontSize=15;fontStyle=1;fillColor=#fff2cc;strokeColor=#d6b656;" parent="1" vertex="1">
          <mxGeometry x="304.5" y="265" width="120" height="60" as="geometry" />
        </mxCell>
        <mxCell id="OyZmsM7QjPxszk3Gy9xb-29" style="edgeStyle=orthogonalEdgeStyle;rounded=0;orthogonalLoop=1;jettySize=auto;html=1;exitX=0.5;exitY=1;exitDx=0;exitDy=0;entryX=0.5;entryY=0;entryDx=0;entryDy=0;" parent="1" source="OyZmsM7QjPxszk3Gy9xb-24" target="OyZmsM7QjPxszk3Gy9xb-17" edge="1">
          <mxGeometry relative="1" as="geometry" />
        </mxCell>
        <mxCell id="OyZmsM7QjPxszk3Gy9xb-24" value="&lt;b&gt;Jlink仿真器&lt;/b&gt;" style="rounded=0;whiteSpace=wrap;html=1;fillColor=#d5e8d4;strokeColor=#82b366;fontSize=15;" parent="1" vertex="1">
          <mxGeometry x="578" y="390" width="120" height="60" as="geometry" />
        </mxCell>
        <mxCell id="OyZmsM7QjPxszk3Gy9xb-30" value="&lt;b style=&quot;font-size: 15px;&quot;&gt;&lt;font style=&quot;font-size: 15px;&quot;&gt;2.烧录&lt;/font&gt;&lt;/b&gt;" style="text;html=1;align=center;verticalAlign=middle;whiteSpace=wrap;rounded=0;fontSize=15;" parent="1" vertex="1">
          <mxGeometry x="623" y="467" width="90.5" height="30" as="geometry" />
        </mxCell>
        <mxCell id="OyZmsM7QjPxszk3Gy9xb-19" value="&lt;b style=&quot;font-size: 15px;&quot;&gt;&lt;font style=&quot;font-size: 15px;&quot;&gt;1.编译，链接&lt;/font&gt;&lt;/b&gt;" style="text;html=1;align=center;verticalAlign=middle;whiteSpace=wrap;rounded=0;fontSize=15;fillColor=none;" parent="1" vertex="1">
          <mxGeometry x="310" y="485" width="90.5" height="30" as="geometry" />
        </mxCell>
        <mxCell id="OyZmsM7QjPxszk3Gy9xb-41" style="edgeStyle=orthogonalEdgeStyle;rounded=0;orthogonalLoop=1;jettySize=auto;html=1;exitX=1;exitY=0.5;exitDx=0;exitDy=0;entryX=0;entryY=0.5;entryDx=0;entryDy=0;shape=flexArrow;startArrow=block;fillColor=#e1d5e7;strokeColor=#9673a6;" parent="1" source="OyZmsM7QjPxszk3Gy9xb-31" target="OyZmsM7QjPxszk3Gy9xb-37" edge="1">
          <mxGeometry relative="1" as="geometry" />
        </mxCell>
        <mxCell id="OyZmsM7QjPxszk3Gy9xb-31" value="串口通讯助手" style="rounded=0;whiteSpace=wrap;html=1;fontSize=15;fontStyle=1;fillColor=#d5e8d4;strokeColor=#82b366;" parent="1" vertex="1">
          <mxGeometry x="37" y="641" width="400" height="60" as="geometry" />
        </mxCell>
        <mxCell id="OyZmsM7QjPxszk3Gy9xb-36" value="Macronix&lt;div&gt;Flash&lt;/div&gt;" style="rounded=0;whiteSpace=wrap;html=1;fillColor=#d5e8d4;strokeColor=#82b366;fontSize=15;fontStyle=1" parent="1" vertex="1">
          <mxGeometry x="661" y="641" width="120" height="60" as="geometry" />
        </mxCell>
        <mxCell id="OyZmsM7QjPxszk3Gy9xb-37" value="UART转串口模块" style="rounded=0;whiteSpace=wrap;html=1;fillColor=#d5e8d4;strokeColor=#82b366;fontSize=15;fontStyle=1" parent="1" vertex="1">
          <mxGeometry x="499" y="641" width="120" height="60" as="geometry" />
        </mxCell>
        <mxCell id="OyZmsM7QjPxszk3Gy9xb-42" value="" style="endArrow=classic;html=1;rounded=0;" parent="1" edge="1">
          <mxGeometry width="50" height="50" relative="1" as="geometry">
            <mxPoint x="539.5" y="250" as="sourcePoint" />
            <mxPoint x="623.5" y="250" as="targetPoint" />
          </mxGeometry>
        </mxCell>
        <mxCell id="OyZmsM7QjPxszk3Gy9xb-44" value="" style="shape=flexArrow;endArrow=classic;html=1;rounded=0;fillColor=#e1d5e7;strokeColor=#9673a6;" parent="1" edge="1">
          <mxGeometry width="50" height="50" relative="1" as="geometry">
            <mxPoint x="538.5" y="295.5" as="sourcePoint" />
            <mxPoint x="627.5" y="295.5" as="targetPoint" />
          </mxGeometry>
        </mxCell>
        <mxCell id="OyZmsM7QjPxszk3Gy9xb-45" value="流程" style="text;html=1;align=center;verticalAlign=middle;whiteSpace=wrap;rounded=0;fontSize=15;fontStyle=1" parent="1" vertex="1">
          <mxGeometry x="653.5" y="233" width="80" height="30" as="geometry" />
        </mxCell>
        <mxCell id="OyZmsM7QjPxszk3Gy9xb-46" value="物理接线" style="text;html=1;align=center;verticalAlign=middle;whiteSpace=wrap;rounded=0;fontSize=15;fontStyle=1" parent="1" vertex="1">
          <mxGeometry x="653.5" y="281" width="80" height="30" as="geometry" />
        </mxCell>
      </root>
    </mxGraphModel>
  </diagram>
</mxfile>
